<?xml version="1.0" encoding="UTF-8"?>
<svg width="18px" height="18px" viewBox="0 0 18 18" version="1.1" xmlns="http://www.w3.org/2000/svg" xmlns:xlink="http://www.w3.org/1999/xlink">
    <!-- Generator: Sketch 61.2 (89653) - https://sketch.com -->
    <title>24px_wallet-90</title>
    <desc>Created with Sketch.</desc>
    <g id="Dashboard" stroke="none" stroke-width="1" fill="none" fill-rule="evenodd" opacity="0.799999952" stroke-linecap="square">
        <g id="wallet.on-Finance-App" transform="translate(-48.000000, -198.000000)" stroke="#9191AF" stroke-width="2">
            <g id="wallet.on---overview">
                <g id="sidebar">
                    <g id="menu" transform="translate(0.000000, 96.000000)">
                        <g id="Balances" transform="translate(49.000000, 102.000000)">
                            <g id="24px_wallet-90" transform="translate(0.000000, 1.000000)">
                                <path d="M4,1 L1.6,1 C0.716,1 0,1.67125 0,2.5 L0,2.5 C0,3.32875 0.716,4 1.6,4" id="Path"></path>
                                <polyline id="Path" points="4 4 4 0 14 0 14 4"></polyline>
                                <path d="M16,4.44444444 L1.45454545,4.44444444 C0.650909091,4.44444444 0,3.79805556 0,3 L0,13.8333333 C0,15.0300556 0.976727273,16 2.18181818,16 L16,16 L16,4.44444444 Z" id="Path"></path>
                                <circle id="Oval" cx="11.5" cy="10.5" r="1.5"></circle>
                            </g>
                        </g>
                    </g>
                </g>
            </g>
        </g>
    </g>
</svg>