<?xml version="1.0" encoding="UTF-8"?>
<svg width="314px" height="68px" viewBox="0 0 314 68" version="1.1" xmlns="http://www.w3.org/2000/svg" xmlns:xlink="http://www.w3.org/1999/xlink">
    <!-- Generator: Sketch 61.2 (89653) - https://sketch.com -->
    <title>Group 3</title>
    <desc>Created with Sketch.</desc>
    <defs>
        <linearGradient x1="100%" y1="50.3038952%" x2="0%" y2="50.5341103%" id="linearGradient-1">
            <stop stop-color="#FFFFFF" offset="0%"></stop>
            <stop stop-color="#39DABC" offset="16.7625633%"></stop>
            <stop stop-color="#06B39B" offset="100%"></stop>
        </linearGradient>
        <linearGradient x1="1.16276421%" y1="82.0587356%" x2="100%" y2="82.0587356%" id="linearGradient-2">
            <stop stop-color="#39DABC" offset="0%"></stop>
            <stop stop-color="#06B39B" offset="100%"></stop>
        </linearGradient>
    </defs>
    <g id="Dashboard" stroke="none" stroke-width="1" fill="none" fill-rule="evenodd">
        <g id="wallet.on-Finance-App" transform="translate(-650.000000, -250.000000)">
            <g id="wallet.on---overview">
                <g id="Balances" transform="translate(288.000000, 96.000000)">
                    <g id="card" transform="translate(362.000000, 62.000000)">
                        <g id="Group-3" transform="translate(0.000000, 93.000000)">
                            <path d="M0.0165751689,0 C9.67976598,7.24423427 16.4634301,13.2442343 20.3675676,18 C25.2193418,23.9101151 28.3413133,35.5915231 32.5685494,40.0952038 C41.8981595,50.0349334 52.8626337,54.3365322 65.4619721,53 C79.6159242,34.0775988 90.7019497,24.0775988 98.7200486,23 C106.138963,22.002929 115.952158,36.532497 121.177745,40.0952038 C132.772076,48 137.991596,48 157,45.484375 C167.119619,44.1451164 178.377824,60.7861328 191.473036,61.4127562 C207.729133,61.4127562 212.726547,53.6640625 226.391116,46.9433594 C231.488612,44.4362363 245.947329,55.4589844 251.773501,55.4589844 C255.657615,55.4589844 260.06219,54.6393229 264.987226,53 L278.356757,48 L286.843243,50.1113281 L314,50.1113281 L314,51 C314,59.836556 306.836556,67 298,67 L16,67 C7.163444,67.0039578 1.082166e-15,59.8405138 0,51.0039578 C-1.61581907e-19,51.0026383 1.63205594e-07,51.0013189 0.00395824917,51.0000005 L0.0165751689,0 L0.0165751689,0 Z" id="Path-2-Copy" fill="url(#linearGradient-1)" opacity="0.0700000003"></path>
                            <path d="M0,53.234375 C7.06997085,45.1796875 15.6953353,45.1796875 25.8760933,53.234375 C41.1472303,65.3164062 47.0495513,46.5136719 60.6968044,46.5136719 C74.3440575,46.5136719 85.5806502,62.2122876 95.3634122,61.3808594 C112.80927,59.8981515 124.824392,41.2452935 138.303543,46.5136719 C169.859916,58.8476029 178.18315,14.7070312 196.831302,24 C215.479455,33.2929687 220.622859,59.9550781 234.283368,53.234375 C247.943878,46.5136719 252.736821,53.453125 258.557119,37.2265625 C262.437318,26.4088542 273.251611,14 291,-2.48689958e-14" id="Path-2" stroke="url(#linearGradient-2)" stroke-width="2.5" transform="translate(145.500000, 30.706378) scale(-1, 1) translate(-145.500000, -30.706378) "></path>
                            <circle id="Oval" stroke="#39DABC" stroke-width="2.5" fill="#FFFFFF" cx="293" cy="53" r="5"></circle>
                        </g>
                    </g>
                </g>
            </g>
        </g>
    </g>
</svg>