<?xml version="1.0" encoding="UTF-8"?>
<svg width="314px" height="50px" viewBox="0 0 314 50" version="1.1" xmlns="http://www.w3.org/2000/svg" xmlns:xlink="http://www.w3.org/1999/xlink">
    <!-- Generator: Sketch 61.2 (89653) - https://sketch.com -->
    <title>Group 2</title>
    <desc>Created with Sketch.</desc>
    <defs>
        <linearGradient x1="100%" y1="50.1356927%" x2="0%" y2="50.2384865%" id="linearGradient-1">
            <stop stop-color="#FFFFFF" offset="0%"></stop>
            <stop stop-color="#D9E2F2" offset="4.23345381%"></stop>
            <stop stop-color="#5187E0" offset="100%"></stop>
        </linearGradient>
        <linearGradient x1="100%" y1="50%" x2="0%" y2="50%" id="linearGradient-2">
            <stop stop-color="#60ADFA" offset="0%"></stop>
            <stop stop-color="#4A71E1" offset="100%"></stop>
        </linearGradient>
    </defs>
    <g id="Dashboard" stroke="none" stroke-width="1" fill="none" fill-rule="evenodd">
        <g id="wallet.on-Finance-App" transform="translate(-288.000000, -268.000000)">
            <g id="wallet.on---overview">
                <g id="Balances" transform="translate(288.000000, 96.000000)">
                    <g id="card" transform="translate(0.000000, 62.000000)">
                        <g id="Group-2" transform="translate(0.000000, 112.000000)">
                            <path d="M0.0165751689,22.563392 C5.95711571,23.469642 14.0192779,27.9501108 24.2030617,36.0047983 C34.3868454,44.0594858 45.9971988,41.8192514 59.0341216,29.2840952 C80.1751971,12.2476724 101.267652,7.84077135 122.311486,16.063392 C153.877238,28.397323 176.555384,-2.52254547 195.209079,6.77042328 C213.862774,16.063392 219.007707,42.7255014 232.672276,36.0047983 C237.769772,33.4976752 244.762209,33.312535 250.57263,27.9433594 C253.621535,25.1259894 257.902901,18.7623827 263.416728,8.85253906 L270.982464,11.4599609 L279.189659,16.7704233 L295.32973,3.22957672 L314,3.22957672 L314,32 C314,40.836556 306.836556,48 298,48 L16,48 C7.163444,48.0104226 1.082166e-15,40.8469786 0,32.0104226 C-4.25606536e-19,32.0069473 1.1323121e-06,32.0034719 0.0104260225,32.0000034 L0.0165751689,22.563392 L0.0165751689,22.563392 Z" id="Path-2-Copy" fill="url(#linearGradient-1)" opacity="0.118233817"></path>
                            <path d="M0,20.7929687 C5.93255132,21.6992187 13.983871,26.1796875 24.1539589,34.234375 C34.3240469,42.2890625 45.9187859,40.0488281 58.9381759,27.5136719 C80.0508194,10.4772491 101.114908,6.07034807 122.130441,14.2929687 C153.653741,26.6268998 176.301388,-4.29296875 194.929997,5 C213.558605,14.2929687 218.696618,40.9550781 232.342811,34.234375 C245.989003,27.5136719 250.776923,34.453125 256.591121,18.2265625 C262.405319,2 268.136753,9.46191406 274.598997,14.2929687 C278.907159,17.5136719 283.707493,15.0826823 289,7" id="Path-2" stroke="url(#linearGradient-2)" stroke-width="2.5"></path>
                            <circle id="Oval" stroke="#5997E6" stroke-width="2.5" cx="293" cy="5" r="5"></circle>
                        </g>
                    </g>
                </g>
            </g>
        </g>
    </g>
</svg>