<?xml version="1.0" encoding="UTF-8"?>
<svg width="314px" height="51px" viewBox="0 0 314 51" version="1.1" xmlns="http://www.w3.org/2000/svg" xmlns:xlink="http://www.w3.org/1999/xlink">
    <!-- Generator: Sketch 61.2 (89653) - https://sketch.com -->
    <title>Group 4</title>
    <desc>Created with Sketch.</desc>
    <defs>
        <linearGradient x1="100%" y1="50.1348326%" x2="0%" y2="50.2369747%" id="linearGradient-1">
            <stop stop-color="#FFFFFF" offset="0%"></stop>
            <stop stop-color="#EBD9F2" offset="6.28959037%"></stop>
            <stop stop-color="#B151E0" offset="100%"></stop>
        </linearGradient>
        <linearGradient x1="100%" y1="50%" x2="0%" y2="50%" id="linearGradient-2">
            <stop stop-color="#EF7EF8" offset="0%"></stop>
            <stop stop-color="#9835C3" offset="100%"></stop>
        </linearGradient>
    </defs>
    <g id="Dashboard" stroke="none" stroke-width="1" fill="none" fill-rule="evenodd">
        <g id="wallet.on-Finance-App" transform="translate(-1012.000000, -267.000000)">
            <g id="wallet.on---overview">
                <g id="Balances" transform="translate(288.000000, 96.000000)">
                    <g id="card-outside" transform="translate(724.000000, 62.000000)">
                        <g id="Group-4" transform="translate(-6.503906, 111.000000)">
                            <path d="M6.01662796,37.0047983 C11.9760874,28.9501108 20.0639253,28.9501108 30.2801415,37.0047983 C37.5632008,42.746921 44.1365227,37.7912822 52.8742082,33.0693359 C55.2202006,31.8015345 59.574508,30.426209 65.9371305,28.9433594 C78.3846859,35.6716812 87.6251183,38.2288242 93.6584275,36.6147884 C105.504394,33.4457457 116.733207,12.4019634 128.701014,17.063392 C160.367293,29.397323 183.117663,-1.52254547 201.830764,7.77042328 C220.543866,17.063392 225.705184,43.7255014 239.413271,37.0047983 C244.527001,34.4976752 251.541707,34.312535 257.370632,28.9433594 C260.429246,26.1259894 264.724247,19.7623827 270.255635,9.85253906 L277.845466,12.4599609 L286.078798,17.7704233 L302.27027,4.22957672 L321,4.22957672 L321,33 C321,41.836556 313.836556,49 305,49 L17.9952132,49 C11.3796169,49 6.01661645,43.6369995 6.01661645,37.0214032 C6.01661645,37.0158682 6.01662028,37.0103332 6.01662796,37.0047983 L6.01662796,37.0047983 L6.01662796,37.0047983 Z" id="Path-2-Copy" fill="url(#linearGradient-1)" opacity="0.118233817"></path>
                            <path d="M0,43.4127562 C9.65582671,29.9058146 19.594474,27.1796875 29.8159418,35.234375 C45.1481436,47.3164062 47.8360287,28.1516566 64.7758906,28.5136719 C81.7157524,28.8756871 83.434007,38.6574919 94.4099399,36.6147884 C104.602707,34.7178378 118.117268,11.3337621 128.287407,15.2929687 C159.969964,27.6268998 182.732029,-3.29296875 201.45475,6 C220.177471,15.2929687 225.341442,41.9550781 239.056575,35.234375 C252.771709,28.5136719 257.583818,35.453125 263.42739,19.2265625 C269.270961,3 275.031351,10.4619141 281.526242,15.2929687 C285.856169,18.5136719 290.680755,16.0826823 296,8" id="Path-2" stroke="url(#linearGradient-2)" stroke-width="2.5"></path>
                            <circle id="Oval" stroke="#EF7DF7" stroke-width="2.5" cx="299.503906" cy="5" r="5"></circle>
                        </g>
                    </g>
                </g>
            </g>
        </g>
    </g>
</svg>