<?xml version="1.0" encoding="UTF-8"?>
<svg width="20px" height="20px" viewBox="0 0 20 20" version="1.1" xmlns="http://www.w3.org/2000/svg" xmlns:xlink="http://www.w3.org/1999/xlink">
    <!-- Generator: Sketch 61.2 (89653) - https://sketch.com -->
    <title>24px_settings-gear</title>
    <desc>Created with Sketch.</desc>
    <g id="Dashboard" stroke="none" stroke-width="1" fill="none" fill-rule="evenodd" opacity="0.799999952" stroke-linecap="square">
        <g id="wallet.on-Finance-App" transform="translate(-47.000000, -428.000000)" stroke="#9191AF" stroke-width="2">
            <g id="wallet.on---overview">
                <g id="sidebar">
                    <g id="menu" transform="translate(0.000000, 96.000000)">
                        <g id="Settings" transform="translate(48.000000, 332.000000)">
                            <g id="24px_settings-gear" transform="translate(0.000000, 1.000000)">
                                <circle id="Oval" cx="9" cy="9" r="2.45454545"></circle>
                                <path d="M15.5454545,9 C15.5444853,8.5286598 15.4929171,8.05878566 15.3916364,7.59845455 L17.6121818,5.91709091 L15.9758182,3.08290909 L13.4042727,4.16781818 C12.7078875,3.52939037 11.881354,3.0495487 10.9816364,2.76136364 L10.6363636,0 L7.36363636,0 L7.01836364,2.76136364 C6.11864602,3.0495487 5.29211247,3.52939037 4.59572727,4.16781818 L2.02418182,3.08290909 L0.387818182,5.91709091 L2.60836364,7.59845455 C2.40332132,8.52156926 2.40332132,9.47843074 2.60836364,10.4015455 L0.387818182,12.0829091 L2.02418182,14.9170909 L4.59572727,13.8321818 C5.29211247,14.4706096 6.11864602,14.9504513 7.01836364,15.2386364 L7.36363636,18 L10.6363636,18 L10.9816364,15.2386364 C11.881354,14.9504513 12.7078875,14.4706096 13.4042727,13.8321818 L15.9758182,14.9170909 L17.6121818,12.0829091 L15.3916364,10.4015455 C15.4929171,9.94121434 15.5444853,9.4713402 15.5454545,9 Z" id="Path"></path>
                            </g>
                        </g>
                    </g>
                </g>
            </g>
        </g>
    </g>
</svg>